HIERARCHY
ROOT Hips
{
 OFFSET 0.000000 0.000000 0.000000
 CHANNELS 6 Xposition Yposition Zposition Yrotation Xrotation Zrotation
 JOINT Chest
 {
  OFFSET 0.000000 9.585900 0.002600
  CHANNELS 3 Yrotation Xrotation Zrotation
  JOINT Chest2
  {
   OFFSET 0.000000 9.601200 -0.005300
   CHANNELS 3 Yrotation Xrotation Zrotation
   JOINT Chest3
   {
    OFFSET 0.000000 9.561800 0.000000
    CHANNELS 3 Yrotation Xrotation Zrotation
    JOINT Chest4
    {
     OFFSET 0.000000 9.552100 0.000000
     CHANNELS 3 Yrotation Xrotation Zrotation
     JOINT Neck
     {
      OFFSET 0.000000 14.453000 0.000000
      CHANNELS 3 Yrotation Xrotation Zrotation
      JOINT Head
      {
       OFFSET 0.000000 8.936500 -0.011300
       CHANNELS 3 Yrotation Xrotation Zrotation
       End Site
       {
        OFFSET 0.000000 17.073600 -0.006000
       }
      }
     }
     JOINT RightCollar
     {
      OFFSET -2.921100 9.558500 0.000000
      CHANNELS 3 Yrotation Xrotation Zrotation
      JOINT RightShoulder
      {
       OFFSET -13.519700 0.000000 0.000000
       CHANNELS 3 Yrotation Xrotation Zrotation
       JOINT RightElbow
       {
        OFFSET 0.000000 -29.696600 0.000000
        CHANNELS 3 Yrotation Xrotation Zrotation
        JOINT RightWrist
        {
         OFFSET 0.000000 -24.004700 0.000000
         CHANNELS 3 Yrotation Xrotation Zrotation
         End Site
         {
          OFFSET 0.000000 -17.728500 0.000000
         }
        }
       }
      }
     }
     JOINT LeftCollar
     {
      OFFSET 2.921100 9.558500 0.000000
      CHANNELS 3 Yrotation Xrotation Zrotation
      JOINT LeftShoulder
      {
       OFFSET 13.519700 0.000000 0.000000
       CHANNELS 3 Yrotation Xrotation Zrotation
       JOINT LeftElbow
       {
        OFFSET 0.000000 -29.696600 0.000000
        CHANNELS 3 Yrotation Xrotation Zrotation
        JOINT LeftWrist
        {
         OFFSET 0.000000 -24.004700 0.000000
         CHANNELS 3 Yrotation Xrotation Zrotation
         End Site
         {
          OFFSET 0.000000 -17.728500 0.000000
         }
        }
       }
      }
     }
    }
   }
  }
 }
 JOINT RightHip
 {
  OFFSET -7.771700 -0.012900 -0.001300
  CHANNELS 3 Yrotation Xrotation Zrotation
  JOINT RightKnee
  {
   OFFSET 0.000000 -40.869800 0.001200
   CHANNELS 3 Yrotation Xrotation Zrotation
   JOINT RightAnkle
   {
    OFFSET 0.000000 -39.717900 0.002100
    CHANNELS 3 Yrotation Xrotation Zrotation
    JOINT RightToe
    {
     OFFSET 0.000000 -4.965400 11.033500
     CHANNELS 3 Yrotation Xrotation Zrotation
     End Site
     {
      OFFSET 0.000000 -1.423100 5.872300
     }
    }
   }
  }
 }
 JOINT LeftHip
 {
  OFFSET 7.771700 -0.012900 -0.001300
  CHANNELS 3 Yrotation Xrotation Zrotation
  JOINT LeftKnee
  {
   OFFSET 0.000000 -40.869800 0.001200
   CHANNELS 3 Yrotation Xrotation Zrotation
   JOINT LeftAnkle
   {
    OFFSET 0.000000 -39.717900 0.002100
    CHANNELS 3 Yrotation Xrotation Zrotation
    JOINT LeftToe
    {
     OFFSET 0.000000 -4.965400 11.033500
     CHANNELS 3 Yrotation Xrotation Zrotation
     End Site
     {
      OFFSET 0.000000 -1.423100 5.872300
     }
    }
   }
  }
 }
}
MOTION
Frames: 13
Frame Time: 0.008333
-27.754312 50.349523 26.605453 163.143483 -8.032728 -0.473484 3.406684 6.905408 0.631165 0.146028 0.320117 -0.012987 0.260048 0.558835 -0.016583 3.043914 6.591240 -0.059723 1.982066 19.929428 0.044063 3.602727 1.220965 -0.505225 3.347147 6.609223 1.042823 -8.540541 -12.868670 -5.778717 -34.073278 -62.942217 54.899848 -4.179439 -1.827185 -22.552552 -4.873058 2.332498 -0.192650 20.842554 -5.849527 1.925909 35.991613 -69.683600 -55.469136 2.533643 6.927674 14.609553 -5.766370 -72.487565 1.115095 -138.982046 82.641809 -137.680436 -3.308004 -16.600839 -0.256532 -0.214287 0.652632 -0.096385 -7.891963 -76.288494 27.090357 117.041970 79.144623 113.608045 -16.381079 -23.003316 1.153745 -0.275967 -0.988304 -0.098404
-27.754596 50.350179 26.603407 163.134827 -8.048913 -0.475773 3.412612 6.922243 0.631187 0.147695 0.319702 -0.011026 0.255943 0.560456 -0.021901 3.043789 6.593473 -0.064964 1.991702 19.929810 0.052014 3.607715 1.228034 -0.504193 3.355146 6.600106 1.049180 -8.533309 -12.870918 -5.795017 -34.082104 -62.927084 54.909209 -4.186391 -1.826915 -22.558035 -4.866221 2.320398 -0.184034 20.842769 -5.846913 1.926506 35.975072 -69.690922 -55.463138 2.527463 6.935267 14.599783 -5.760414 -72.470552 1.119114 -138.989487 82.643176 -137.687873 -3.308948 -16.598128 -0.256932 -0.216281 0.651305 -0.095813 -7.868062 -76.272934 27.074924 117.069833 79.130912 113.639558 -16.379178 -23.033744 1.169582 -0.265154 -0.957768 -0.116111
-27.753288 50.351127 26.599599 163.113811 -8.077255 -0.484551 3.432269 6.949815 0.642304 0.147702 0.319913 -0.011175 0.258001 0.560855 -0.021594 3.043394 6.594769 -0.066511 1.993180 19.933672 0.051056 3.616465 1.230518 -0.501024 3.359002 6.594622 1.040277 -8.531687 -12.868855 -5.794778 -34.093352 -62.919379 54.917240 -4.188539 -1.822740 -22.560337 -4.865457 2.314023 -0.184396 20.841396 -5.849046 1.928412 35.968000 -69.693786 -55.457289 2.518973 6.940743 14.588510 -5.769317 -72.439927 1.151307 -138.980003 82.645077 -137.679915 -3.305098 -16.593762 -0.258075 -0.220480 0.648788 -0.095374 -7.869120 -76.246931 27.093590 117.206048 79.138997 113.779302 -16.319817 -23.065772 1.172909 -0.359933 -0.941901 -0.140697
-27.754053 50.351456 26.599714 163.118714 -8.078318 -0.494275 3.427795 6.951946 0.647020 0.147716 0.320108 -0.011433 0.258542 0.560175 -0.019385 3.043720 6.595796 -0.067965 1.993969 19.934486 0.052998 3.623102 1.235763 -0.502357 3.370209 6.585088 1.021348 -8.539205 -12.861186 -5.784466 -34.096130 -62.911412 54.917076 -4.180922 -1.818802 -22.557830 -4.869801 2.306023 -0.185251 20.840136 -5.851231 1.934607 35.963950 -69.694912 -55.459326 2.514592 6.946960 14.581468 -5.803803 -72.436909 1.182941 -138.974688 82.645995 -137.676059 -3.303144 -16.590571 -0.257923 -0.218567 0.647931 -0.096854 -7.906908 -76.247312 27.125978 117.266796 79.152795 113.843116 -16.296425 -23.086555 1.173908 -0.258599 -0.930294 -0.130235
-27.757539 50.351588 26.600326 163.125447 -8.071126 -0.491708 3.419286 6.948480 0.638674 0.147614 0.320217 -0.011456 0.258709 0.563804 -0.022096 3.040954 6.595765 -0.065345 1.998219 19.930282 0.055228 3.628806 1.241060 -0.505183 3.380232 6.574305 1.015245 -8.542139 -12.857728 -5.781567 -34.094876 -62.913860 54.903474 -4.168067 -1.805753 -22.547134 -4.867652 2.296517 -0.182650 20.834386 -5.856289 1.937500 35.945181 -69.692523 -55.447665 2.516103 6.947307 14.574024 -5.802294 -72.444239 1.170832 -139.024885 82.654202 -137.729104 -3.300962 -16.590556 -0.255179 -0.229008 0.650141 -0.101199 -7.908145 -76.254342 27.121485 117.290859 79.161669 113.866862 -16.314161 -23.103267 1.178668 -0.281621 -0.934828 -0.129012
-27.760072 50.351818 26.600785 163.133576 -8.066069 -0.496147 3.412568 6.946733 0.638760 0.147623 0.320455 -0.011371 0.257925 0.566537 -0.024385 3.040882 6.595656 -0.062764 1.996581 19.936574 0.048738 3.634870 1.232613 -0.502694 3.385257 6.564111 0.998520 -8.546557 -12.851149 -5.768716 -34.082307 -62.918031 54.884632 -4.166174 -1.803211 -22.545954 -4.869314 2.287365 -0.181508 20.827096 -5.859155 1.941238 35.922518 -69.688227 -55.432426 2.521350 6.941565 14.577926 -5.797938 -72.449669 1.153955 -139.075271 82.658465 -137.770575 -3.294202 -16.586043 -0.261653 -0.239438 0.646647 -0.100705 -7.941365 -76.256568 27.147075 117.299718 79.167045 113.871139 -16.314373 -23.123726 1.176743 -0.285922 -0.919531 -0.124638
-27.762673 50.352082 26.601245 163.138887 -8.060624 -0.500771 3.407567 6.945168 0.637569 0.147601 0.324703 -0.013954 0.257894 0.565492 -0.021317 3.035684 6.595844 -0.066170 2.003848 19.937541 0.050829 3.638132 1.230735 -0.502083 3.396064 6.547307 0.971374 -8.561615 -12.837068 -5.749107 -34.073561 -62.920530 54.880036 -4.177005 -1.806050 -22.542558 -4.863667 2.274643 -0.181658 20.813563 -5.860925 1.951661 35.895838 -69.685878 -55.412835 2.533204 6.934039 14.586436 -5.812548 -72.454431 1.163333 -139.044799 82.657254 -137.741527 -3.286478 -16.583522 -0.258820 -0.244764 0.646080 -0.103066 -7.965120 -76.260224 27.165313 117.282957 79.159401 113.848108 -16.315628 -23.141149 1.178261 -0.274195 -0.907818 -0.120366
-27.766326 50.352508 26.600300 163.144220 -8.061293 -0.497227 3.400538 6.960905 0.626678 0.149116 0.313854 -0.009945 0.256899 0.568827 -0.021404 3.037603 6.606923 -0.072368 2.005947 19.927342 0.057190 3.638938 1.226422 -0.501572 3.396164 6.527464 0.973384 -8.565531 -12.831291 -5.772791 -34.086611 -62.919781 54.903838 -4.183159 -1.807173 -22.541235 -4.868673 2.250499 -0.174989 20.809289 -5.858655 1.957651 35.878032 -69.681015 -55.407658 2.530741 6.933416 14.580208 -5.795820 -72.453264 1.139918 -139.054874 82.659447 -137.751015 -3.288978 -16.588896 -0.257269 -0.244315 0.651060 -0.103136 -7.937257 -76.260168 27.130334 117.295058 79.161181 113.861473 -16.334872 -23.159921 1.188335 -0.285986 -0.918248 -0.121715
-27.770766 50.352917 26.599291 163.144979 -8.060986 -0.488052 3.397880 6.964485 0.616513 0.147206 0.323538 -0.013275 0.258418 0.561644 -0.019825 3.038673 6.606224 -0.073344 2.007126 19.927619 0.060324 3.640086 1.226624 -0.501700 3.404336 6.517131 0.957077 -8.577704 -12.822216 -5.761934 -34.049519 -62.924463 54.885642 -4.172471 -1.803894 -22.557052 -4.873895 2.240202 -0.174106 20.805015 -5.857969 1.962479 35.817187 -69.673690 -55.383003 2.544990 6.923405 14.589068 -5.779228 -72.453989 1.123045 -139.045260 82.658542 -137.747111 -3.301306 -16.596091 -0.257535 -0.235571 0.658710 -0.099358 -7.883606 -76.263105 27.074184 117.317767 79.167389 113.891671 -16.380586 -23.173012 1.204639 -0.295651 -0.923289 -0.127674
-27.774104 50.353223 26.599631 163.150128 -8.054938 -0.487110 3.391603 6.961315 0.613872 0.147231 0.325740 -0.016626 0.258404 0.561594 -0.019952 3.038558 6.605838 -0.074585 2.010057 19.924481 0.065486 3.640245 1.237271 -0.496971 3.406957 6.507739 0.930302 -8.578319 -12.807531 -5.758876 -34.054419 -62.919589 54.894133 -4.183627 -1.812394 -22.550999 -4.880796 2.229051 -0.173750 20.794057 -5.854991 1.970897 35.804760 -69.670453 -55.379320 2.542015 6.926615 14.589622 -5.784561 -72.460342 1.123459 -139.058167 82.659918 -137.763193 -3.304742 -16.598953 -0.256582 -0.234278 0.661438 -0.099636 -7.881665 -76.273215 27.063966 117.353589 79.177529 113.929457 -16.382767 -23.171176 1.213506 -0.299193 -0.931960 -0.132375
-27.775953 50.353483 26.601103 163.157752 -8.045213 -0.495354 3.384678 6.956272 0.615174 0.147044 0.323007 -0.013575 0.256804 0.563170 -0.021312 3.035636 6.605745 -0.075820 2.016415 19.928695 0.065684 3.642832 1.240910 -0.491477 3.412992 6.502233 0.922284 -8.570985 -12.795845 -5.778211 -34.062844 -62.912367 54.905149 -4.194067 -1.823806 -22.540857 -4.892397 2.207304 -0.170012 20.789696 -5.839706 1.983227 35.819007 -69.665822 -55.387268 2.537534 6.929749 14.584237 -5.823494 -72.469445 1.160885 -139.034608 82.659713 -137.744210 -3.308885 -16.597605 -0.259530 -0.230356 0.660410 -0.095111 -7.936369 -76.285713 27.110992 117.353166 79.175719 113.927907 -16.390819 -23.159614 1.216163 -0.302640 -0.946864 -0.133912
-27.776864 50.353688 26.603655 163.170163 -8.031104 -0.509325 3.369379 6.948356 0.620762 0.150661 0.318290 -0.010087 0.254044 0.563821 -0.021743 3.035275 6.604711 -0.075487 2.017533 19.932080 0.065048 3.648472 1.247863 -0.489268 3.413756 6.491023 0.872129 -8.565756 -12.771334 -5.754105 -34.075697 -62.905579 54.920299 -4.192794 -1.815464 -22.537613 -4.896002 2.197604 -0.168331 20.768073 -5.832568 1.987334 35.834226 -69.665429 -55.386802 2.536057 6.933128 14.571402 -5.887584 -72.480481 1.217019 -139.008992 82.661029 -137.721650 -3.309965 -16.596798 -0.259782 -0.228885 0.660143 -0.096287 -8.018359 -76.298978 27.186064 117.319899 79.172640 113.884544 -16.382570 -23.146794 1.213419 -0.306722 -0.970066 -0.131630
-27.777210 50.354014 26.606032 163.183082 -8.019084 -0.523858 3.356429 6.939569 0.630103 0.146759 0.320610 -0.011828 0.256735 0.561000 -0.020046 3.032690 6.603400 -0.074518 2.007466 19.933359 0.062586 3.663694 1.245486 -0.492034 3.419171 6.482239 0.842820 -8.560180 -12.755180 -5.744339 -34.059048 -62.899563 54.904198 -4.199265 -1.809137 -22.531847 -4.893294 2.192674 -0.167592 20.758451 -5.830908 1.989665 35.767542 -69.659777 -55.360975 2.551243 6.917672 14.596208 -5.944134 -72.488857 1.263324 -138.987518 82.662803 -137.699886 -3.302649 -16.597878 -0.259649 -0.230857 0.658800 -0.100339 -8.085737 -76.309455 27.249440 117.278556 79.170856 113.832883 -16.362129 -23.134370 1.204911 -0.276653 -0.979047 -0.120037
